# xmcd
#
# Track frame offsets:
#	150
#	24737
#	42437
#	74005
#	96573
#	130216
#	150559
#	179903
#	200513
#	215117
#	240786
#	322030
#
# Disc length: 4706 seconds
#
# Revision: 1
# Processed by: cddbd v1.5.2PL0 Copyright (c) Steve Scherf et al.
# Submitted via: audiograbber 1.83.01
#
DISCID=bb12600c
DTITLE=Joan Faulkner - The Journey called Life
DYEAR=2006
DGENRE=Soul
TTITLE0=Most wanted Ladies of the Blues
TTITLE1=I get a kick out of you
TTITLE2=Don´t explain
TTITLE3=Move on down the Line
TTITLE4=The journey called Life
TTITLE5=Well you needn´t
TTITLE6=Ruby my Dear
TTITLE7=All through the Night
TTITLE8=My kind of World
TTITLE9=Black and Blue
TTITLE10=Ellington Medley - Squeeze me/Prelude to a Kiss/ Arround much anymore
TTITLE11=The Journey called Life "Trio"
EXTD=
EXTT0=
EXTT1=
EXTT2=
EXTT3=
EXTT4=
EXTT5=
EXTT6=
EXTT7=
EXTT8=
EXTT9=
EXTT10=
EXTT11=
PLAYORDER=
